<?xml version="1.0" encoding="UTF-8" standalone="no"?>
<!-- Created with Inkscape (http://www.inkscape.org/) -->

<svg
   version="1.1"
   id="svg2"
   width="500"
   height="500"
   viewBox="0 0 500 500"
   sodipodi:docname="batik star.svg"
   inkscape:version="1.2.1 (9c6d41e410, 2022-07-14)"
   xmlns:inkscape="http://www.inkscape.org/namespaces/inkscape"
   xmlns:sodipodi="http://sodipodi.sourceforge.net/DTD/sodipodi-0.dtd"
   xmlns="http://www.w3.org/2000/svg"
   xmlns:svg="http://www.w3.org/2000/svg">
  <defs
     id="defs6" />
  <sodipodi:namedview
     id="namedview4"
     pagecolor="#ffffff"
     bordercolor="#000000"
     borderopacity="0.25"
     inkscape:showpageshadow="2"
     inkscape:pageopacity="0.0"
     inkscape:pagecheckerboard="0"
     inkscape:deskcolor="#d1d1d1"
     showgrid="false"
     inkscape:zoom="1.65"
     inkscape:cx="200.60606"
     inkscape:cy="162.72727"
     inkscape:window-width="1920"
     inkscape:window-height="995"
     inkscape:window-x="-9"
     inkscape:window-y="-9"
     inkscape:window-maximized="1"
     inkscape:current-layer="g8" />
  <g
     inkscape:groupmode="layer"
     inkscape:label="Image"
     id="g8">
    <path
       id="path603"
       style="fill:#000000;stroke:none;stroke-width:1.85824"
       d="M 322.91582,4.6329675 V 67.370611 H 260 v 15.728955 h 15.72895 v 15.534406 h 15.72896 v 15.728948 h 15.72895 v 15.72894 h -15.72895 v 15.72897 h -15.72896 v 15.53439 H 260 v 15.72895 h 62.73764 v 62.91582 h 15.72896 v -15.72896 h 15.53439 v -15.72894 h 15.72895 v -15.72896 h 15.72895 v 15.72896 h 15.72897 v 15.72894 h 15.53439 v 15.72896 h 15.72895 v -62.91582 h 63.09401 V 161.35522 H 479.81626 V 145.82083 H 464.0873 V 130.09186 H 448.35835 V 114.36292 H 464.0873 V 98.633972 h 15.72896 V 83.099566 h 15.72895 V 67.370611 H 432.62938 V 4.6329675 H 416.90043 V 20.361923 h -15.5344 V 36.090878 H 385.63708 V 51.819835 H 369.90812 V 36.090878 H 354.17917 V 20.361923 H 338.64478 V 4.6329675 Z m 46.9923,0 V 20.361923 h 15.72896 V 4.6329675 Z M 338.64478,67.54879 h 31.26334 v 15.724861 0.0041 H 354.17917 V 99.006702 H 338.4502 v 15.728948 h -15.53438 v -0.37274 -31.263347 h 15.72896 z m 46.9923,0 h 31.26335 v 15.550776 h 15.72895 v 31.263354 0.37274 H 417.09499 V 99.006712 H 401.36603 V 83.277746 h -15.72895 v -0.0041 z m -15.72896,31.453812 h 15.72896 v 0.004 15.728948 h 15.72895 v 15.72896 h -15.72895 v 15.72896 h -15.72896 v -15.72885 h -15.72895 v -15.72896 h 15.72895 V 99.006702 Z M 260,114.36292 v 15.72894 h 15.72895 v -15.72894 z m 219.81626,0 v 15.72894 h 15.72895 V 114.36292 Z M 322.91582,130.4646 h 15.53438 v 15.72897 h 15.72897 v 15.72895 h 15.72895 v 15.16165 h -0.17818 -31.26334 v -15.55077 -0.17818 h -15.55078 z m 94.17917,0 h 15.53439 v 30.89062 h -15.55077 v 0.17818 h -0.35636 v 15.55077 h -31.08517 v -15.16165 h 15.72895 v -15.72895 h 15.72896 z m -47.36505,93.80643 v 15.72896 h 15.72895 v -15.72896 z" />
    <path
       id="path756"
       style="fill:#000000;stroke:none;stroke-width:1.85824"
       d="M 67.37061,4.6329725 V 67.370616 H 4.45479 V 83.099571 H 20.18374 V 98.633972 H 35.9127 v 15.728948 h 15.72895 v 15.72894 H 35.9127 v 15.72897 H 20.18374 v 15.53439 H 4.45479 v 15.72895 h 62.73764 v 62.91582 h 15.72896 v -15.72896 h 15.53439 v -15.72894 h 15.72895 v -15.72896 h 15.72895 v 15.72896 h 15.72897 v 15.72894 h 15.53439 v 15.72896 h 15.72895 V 177.08417 H 240 v -15.72896 h -15.72895 v -15.53439 h -15.72896 v -15.72896 h -15.72895 v -15.72895 h 15.72895 V 98.633962 h 15.72896 V 83.099571 H 240 V 67.370616 H 177.08417 V 4.6329725 H 161.35522 V 20.361928 h -15.5344 V 36.090883 H 130.09187 V 51.81984 H 114.36291 V 36.090883 H 98.63396 V 20.361928 H 83.09957 V 4.6329725 Z m 46.9923,0 V 20.361928 h 15.72896 V 4.6329725 Z M 83.09957,67.548795 h 31.26334 v 15.72486 0.0041 H 98.63396 V 99.006692 H 82.90499 V 114.73564 H 67.37061 V 114.3629 83.099569 h 15.72896 z m 46.9923,0 h 31.26335 v 15.550776 h 15.72895 v 31.263349 0.37273 H 161.54978 V 99.006702 H 145.82082 V 83.277751 h -15.72895 v -0.0041 z m -15.72896,31.453807 h 15.72896 v 0.004 15.728948 h 15.72895 v 15.72895 h -15.72895 v 15.72896 H 114.36291 V 130.46461 H 98.63396 v -15.72895 h 15.72895 V 99.006692 Z M 4.45479,114.36292 v 15.72894 h 15.72895 v -15.72894 z m 219.81626,0 v 15.72894 H 240 V 114.36292 Z M 67.37061,130.4646 h 15.53438 v 15.72897 h 15.72897 v 15.72895 h 15.72895 v 15.16165 H 114.18473 82.92139 V 161.5334 161.35522 H 67.37061 Z m 94.17917,0 h 15.53439 v 30.89062 H 161.5334 v 0.17818 h -0.35636 v 15.55077 h -31.08517 v -15.16165 h 15.72895 v -15.72895 h 15.72896 z m -47.36505,93.80643 v 15.72896 h 15.72895 v -15.72896 z" />
    <path
       id="path779"
       style="fill:#000000;stroke:none;stroke-width:1.85824"
       d="m 322.91582,260 v 62.73764 H 260 v 15.72896 h 15.72895 v 15.5344 h 15.72896 v 15.72895 h 15.72895 v 15.72895 h -15.72895 v 15.72896 h -15.72896 v 15.53439 H 260 v 15.72895 h 62.73764 v 62.91583 h 15.72896 v -15.72896 h 15.53439 v -15.72895 h 15.72895 v -15.72896 h 15.72895 v 15.72896 h 15.72897 v 15.72895 h 15.53439 v 15.72896 H 432.4512 V 432.4512 h 63.09401 V 416.72225 H 479.81626 V 401.18786 H 464.0873 V 385.4589 H 448.35835 V 369.72995 H 464.0873 V 354.001 h 15.72896 v -15.5344 h 15.72895 V 322.73764 H 432.62938 V 260 h -15.72895 v 15.72896 h -15.5344 v 15.72895 h -15.72895 v 15.72896 H 369.90812 V 291.45791 H 354.17917 V 275.72896 H 338.64478 V 260 Z m 46.9923,0 v 15.72896 h 15.72896 V 260 Z m -31.26334,62.91582 h 31.26334 v 15.72486 0.004 h -15.72895 v 15.72895 H 338.4502 v 15.72895 h -15.53438 v -0.37274 -31.26334 h 15.72896 z m 46.9923,0 h 31.26335 v 15.55078 h 15.72895 v 31.26335 0.37274 h -15.53439 v -15.72895 h -15.72896 v -15.72896 h -15.72895 v -0.004 z m -15.72896,31.45381 h 15.72896 v 0.004 15.72895 h 15.72895 v 15.72896 h -15.72895 v 15.72896 h -15.72896 v -15.72885 h -15.72895 v -15.72896 h 15.72895 V 354.37373 Z M 260,369.72995 v 15.72895 h 15.72895 v -15.72895 z m 219.81626,0 v 15.72895 h 15.72895 v -15.72895 z m -156.90044,16.10169 h 15.53438 v 15.72897 h 15.72897 v 15.72895 h 15.72895 v 15.16164 h -0.17818 -31.26334 v -15.55077 -0.17818 h -15.55078 z m 94.17917,0 h 15.53439 v 30.89061 h -15.55077 v 0.17818 h -0.35636 v 15.55077 h -31.08517 v -15.16164 h 15.72895 v -15.72895 h 15.72896 z m -47.36505,93.80643 v 15.72896 h 15.72895 v -15.72896 z" />
    <path
       id="path781"
       style="fill:#000000;stroke:none;stroke-width:1.85824"
       d="m 67.37061,260 v 62.73764 H 4.45479 V 338.4666 H 20.18374 V 354.001 H 35.9127 v 15.72895 h 15.72895 v 15.72894 H 35.9127 v 15.72897 H 20.18374 v 15.53439 H 4.45479 v 15.72895 h 62.73764 v 62.91582 h 15.72896 v -15.72896 h 15.53439 v -15.72894 h 15.72895 v -15.72896 h 15.72895 v 15.72896 h 15.72897 v 15.72894 h 15.53439 v 15.72896 h 15.72895 V 432.4512 H 240 v -15.72896 h -15.72895 v -15.53439 h -15.72896 v -15.72896 h -15.72895 v -15.72895 h 15.72895 v -15.72895 h 15.72896 V 338.4666 H 240 V 322.73764 H 177.08417 V 260 h -15.72895 v 15.72896 h -15.5344 v 15.72895 h -15.72895 v 15.72896 H 114.36291 V 291.45791 H 98.63396 V 275.72896 H 83.09957 V 260 Z m 46.9923,0 v 15.72896 h 15.72896 V 260 Z m -31.26334,62.91582 h 31.26334 v 15.72486 0.004 H 98.63396 v 15.72894 H 82.90499 v 15.72895 H 67.37061 v -0.37274 -31.26333 h 15.72896 z m 46.9923,0 h 31.26335 v 15.55078 h 15.72895 v 31.26335 0.37273 h -15.53439 v -15.72895 h -15.72896 v -15.72895 h -15.72895 v -0.004 z m -15.72896,31.45381 h 15.72896 v 0.004 15.72895 h 15.72895 v 15.72895 h -15.72895 v 15.72896 H 114.36291 V 385.83164 H 98.63396 v -15.72895 h 15.72895 V 354.37372 Z M 4.45479,369.72995 v 15.72894 h 15.72895 v -15.72894 z m 219.81626,0 v 15.72894 H 240 V 369.72995 Z M 67.37061,385.83163 h 15.53438 v 15.72897 h 15.72897 v 15.72895 h 15.72895 v 15.16165 h -0.17818 -31.26334 v -15.55077 -0.17818 H 67.37061 Z m 94.17917,0 h 15.53439 v 30.89062 H 161.5334 v 0.17818 h -0.35636 v 15.55077 h -31.08517 v -15.16165 h 15.72895 V 401.5606 h 15.72896 z m -47.36505,93.80643 v 15.72896 h 15.72895 v -15.72896 z" />
  </g>
</svg>
