<?xml version="1.0" encoding="UTF-8" standalone="no"?>
<!-- Created with Inkscape (http://www.inkscape.org/) -->

<svg
   width="1122.5197"
   height="793.70081"
   viewBox="0 0 296.99998 210"
   version="1.1"
   id="svg5"
   xml:space="preserve"
   inkscape:version="1.2.1 (9c6d41e410, 2022-07-14)"
   sodipodi:docname="kab kecamatan.svg"
   xmlns:inkscape="http://www.inkscape.org/namespaces/inkscape"
   xmlns:sodipodi="http://sodipodi.sourceforge.net/DTD/sodipodi-0.dtd"
   xmlns="http://www.w3.org/2000/svg"
   xmlns:svg="http://www.w3.org/2000/svg"><sodipodi:namedview
     id="namedview7"
     pagecolor="#ffffff"
     bordercolor="#000000"
     borderopacity="0.25"
     inkscape:showpageshadow="2"
     inkscape:pageopacity="0.0"
     inkscape:pagecheckerboard="0"
     inkscape:deskcolor="#d1d1d1"
     inkscape:document-units="px"
     showgrid="false"
     inkscape:zoom="1.0306151"
     inkscape:cx="522.5035"
     inkscape:cy="396.85039"
     inkscape:window-width="1920"
     inkscape:window-height="991"
     inkscape:window-x="-9"
     inkscape:window-y="-9"
     inkscape:window-maximized="1"
     inkscape:current-layer="layer1" /><defs
     id="defs2" /><g
     inkscape:label="Layer 1"
     inkscape:groupmode="layer"
     id="layer1"><g
       id="g338"
       style="stroke-width:0.26458333;stroke-dasharray:none;stroke:none"><path
         style="fill:#333333;stroke:none;stroke-width:0.26458333;stroke-dasharray:none"
         d="m 40.608401,58.309286 -1.604553,1.294494 c 1.982053,2.916069 2.35408,4.664784 4.483964,11.533663 2.699361,8.705442 -1.417114,15.993361 -1.956986,20.109883 -0.539873,4.116532 7.085929,21.797374 10.392647,26.318804 3.306716,4.52145 10.999821,6.81611 13.294278,10.59522 2.294458,3.77909 9.582894,8.63782 11.067541,9.9875 1.48465,1.34969 5.128887,-0.8774 7.760767,-1.34979 2.631876,-0.47239 1.012146,-3.91385 5.061189,-6.34328 4.04904,-2.42943 8.368154,2.76707 10.730094,1.55236 2.361938,-1.21472 -2.159732,-11.06787 -3.037024,-15.1169 -0.877293,-4.04904 -5.055764,-10.7244 -6.10557,-12.96717 -0.791129,-1.69014 -0.821625,-2.27695 -0.44235,-4.236433 l -1.739945,-0.109037 -0.990121,-1.683618 0.285254,-1.136365 -1.431437,-0.859379 -2.396753,0.120923 -2.228288,0.834058 -10.670149,-1.742013 0.224792,-6.054927 0.394292,-7.244002 -9.708968,-18.089852 -1.869137,-1.681551 -1.956986,-0.947229 -8.706962,-2.525427 z"
         id="path1977" /><path
         style="fill:#333333;stroke:none;stroke-width:0.26458333;stroke-dasharray:none"
         d="m 50.236237,16.744899 -14.711246,1.214913 c -4.116526,0.269938 3.036561,8.097745 3.711401,15.183569 0.674839,7.085824 -3.374063,12.215065 -4.723742,14.779459 -1.349682,2.564391 -1.417068,3.913864 2.497005,8.975162 0.463764,0.599697 0.866824,1.131497 1.228348,1.623674 l 1.92133,-1.550293 9.50588,0.27957 8.974645,2.603458 2.226221,1.07797 2.179712,1.962671 9.996288,18.621085 -0.413928,7.601603 -0.181901,4.877222 9.169983,1.4981 2.091862,-0.785482 3.001884,-0.148312 2.616894,1.570447 -0.390157,1.562179 0.359151,0.609782 1.219047,0.07648 c 0.07783,-0.382399 0.134598,-0.659493 0.227377,-1.134298 0.81121,-4.151502 2.004563,-4.772204 1.575097,-6.060612 -0.429465,-1.288398 0.477069,-1.765524 1.431437,-2.815332 0.954367,-1.049798 1.049726,-2.481411 1.002006,-5.726265 -0.04772,-3.244854 2.859512,-6.510371 4.749064,-10.019543 1.889555,-3.509164 1.619445,-4.994239 1.754415,-9.178251 0.13495,-4.184012 -2.834021,-5.938261 -6.478157,-8.772591 -3.644139,-2.834326 -7.288488,-7.8282 -11.742436,-9.717752 C 78.579774,43.06396 73.990974,39.959547 71.56155,35.370635 69.132123,30.781722 63.733373,29.431919 59.549363,23.493324 55.365356,17.554729 50.236237,16.744899 50.236237,16.744899 Z"
         id="path1659" /><path
         id="path1667"
         style="fill:#333333;stroke:none;stroke-width:0.26458333;stroke-dasharray:none"
         d="m 183.24826,124.75432 -1.09295,1.77199 v 3.20497 l -5.41001,1.65209 -13.10566,0.48059 -2.47478,-1.37304 -7.33185,-1.29501 c -1.62212,1.27906 -2.19351,2.86598 -1.86397,3.80752 0.47239,1.34968 1.48455,0.60748 3.05356,0.20257 1.56901,-0.4049 1.92339,0.37097 2.2102,0.84336 0.28681,0.47239 0.70848,2.19315 0.70848,2.19315 l -0.69194,0.16898 c 0,0 -0.50606,-1.6029 -0.75913,-2.02468 -0.25306,-0.42177 -0.70865,-0.18574 -2.15956,0.32039 -1.14993,0.40115 -2.08658,0.10185 -2.72852,-0.37517 l -3.01893,1.7663 -0.61754,2.18953 0.68575,2.53731 -1.39268,3.37086 -7.91579,12.08195 -6.97477,0.21084 -4.27933,0.78755 -0.35553,1.95285 -5.71283,10.74405 -0.1018,3.46335 c 8.67218,0.62768 14.08956,-3.49357 22.84098,-5.37848 9.30508,-2.00417 22.57097,1.57471 30.34905,-0.14315 7.77809,-1.71784 15.55613,-1.43196 20.04167,0.66766 4.48554,2.09961 3.9608,1.19292 8.78034,2.67219 4.81957,1.47928 9.06664,8.44637 11.16625,10.16424 2.09959,1.71786 5.72599,7.01488 6.91895,9.44852 1.19296,2.43358 4.81967,1.95609 7.11016,2.33784 2.29048,0.38175 1.76569,-1.3359 5.01055,-5.10563 3.24486,-3.76976 2.61534,-3.43598 2.61534,-7.6352 0,-4.1992 1.44088,-6.63266 1.82263,-10.97504 0.38175,-4.34236 -1.82263,-4.91527 -1.82263,-7.20576 0,-2.29048 -4.42846,-5.86927 -11.06134,-9.97303 -6.63284,-4.1038 -14.98388,-5.72644 -17.56068,-10.30738 -2.5768,-4.58098 -3.53135,-5.48752 -8.6372,-9.68675 -4.01074,-3.29856 -10.72478,-5.7402 -16.24449,-7.56233 z" /><path
         id="path1836"
         style="fill:#333333;stroke:none;stroke-width:0.26458333;stroke-dasharray:none"
         d="m 160.68892,112.39384 c -1.94992,-0.0405 -4.21427,1.76746 -5.75055,1.86552 -1.58588,0.10123 -4.42041,1.01234 -4.42041,1.01234 0,0 -1.68405,1.00656 -4.00699,2.08462 l 1.17719,2.4567 0.39274,3.7915 -7.18974,4.27726 0.51211,0.6873 2.98225,-0.95705 0.01,-0.002 c 0,0 0.17101,-0.0496 0.44752,-0.12299 0.2765,-0.0734 0.65883,-0.17037 1.0821,-0.26562 0.21164,-0.0476 0.43159,-0.0954 0.65526,-0.14004 0.22367,-0.0446 0.45101,-0.0858 0.67644,-0.11989 0.22544,-0.0341 0.44918,-0.0613 0.66611,-0.0775 0.10847,-0.008 0.21495,-0.0133 0.31936,-0.0155 0.10442,-0.002 0.20685,-10e-4 0.30593,0.004 0.31581,0.0148 0.62528,0.0265 0.93482,0.0434 0.15478,0.008 0.3097,0.018 0.46509,0.03 0.1554,0.012 0.31123,0.0265 0.46871,0.0439 0.15748,0.0174 0.31646,0.0382 0.47749,0.063 0.16102,0.0249 0.32437,0.0541 0.49041,0.0884 0.16603,0.0343 0.33496,0.0737 0.50746,0.11937 0.1725,0.0457 0.34822,0.0975 0.52865,0.15658 0.618,0.20235 0.89989,0.29143 1.07539,0.34623 0.77295,-0.54941 3.11323,-2.31905 4.64777,-4.66276 1.85582,-2.83434 4.1838,-2.90197 5.76968,-6.03994 1.58588,-3.13802 -1.04624,-4.48786 -3.03703,-4.65657 -0.0622,-0.005 -0.12468,-0.009 -0.18758,-0.01 z m 5.97379,2.98276 c 0,0 -1.05014,4.19919 -4.39043,6.72827 -3.34026,2.52908 -2.05145,4.4858 -5.72574,5.67872 -0.34584,0.11229 -0.6712,0.2379 -0.97669,0.37414 l 6.04459,1.0697 2.3456,1.3007 12.5646,-0.46095 4.3062,-1.31672 v -2.59932 l 1.12448,-1.82057 c -1.02573,-0.33348 -2.00172,-0.64744 -2.88613,-0.93741 -5.82162,-1.9087 -4.8673,-2.76757 -6.1557,-5.34437 -1.28836,-2.57684 -6.25078,-2.67219 -6.25078,-2.67219 z" /><path
         id="path1098"
         style="fill:#333333;stroke:none;stroke-width:0.26458333;stroke-dasharray:none"
         d="m 152.30597,128.76958 c -0.12881,-0.0418 -0.12739,-0.0402 -0.29507,-0.0951 -0.15659,-0.0513 -0.30914,-0.0963 -0.45837,-0.13591 -0.14924,-0.0396 -0.29511,-0.0741 -0.43925,-0.10387 -0.14415,-0.0298 -0.28656,-0.0548 -0.42789,-0.0765 -0.14132,-0.0217 -0.28194,-0.04 -0.42271,-0.0553 -0.28153,-0.0307 -0.56388,-0.0503 -0.85679,-0.0661 -0.29291,-0.0158 -0.5964,-0.0278 -0.91881,-0.0429 -0.0605,-0.003 -0.12882,-0.003 -0.20361,0 -0.0748,0.003 -0.15593,0.008 -0.24236,0.015 -0.17285,0.0147 -0.366,0.0383 -0.56947,0.0682 -0.20348,0.0299 -0.41712,0.0659 -0.62994,0.10594 -0.21281,0.0401 -0.42492,0.084 -0.6258,0.12919 -0.40175,0.0904 -0.765,0.18301 -1.02784,0.2527 -0.26285,0.0697 -0.4253,0.11679 -0.4253,0.11679 l -3.85558,1.23403 -1.95285,-2.62103 7.72459,-4.59558 -0.2837,-2.72077 -1.09244,-2.28151 c -2.6231,1.12551 -5.75754,2.15901 -8.21397,2.0314 -3.06519,-0.15923 -4.58022,-1.07043 -5.58467,-2.42776 l -0.63614,-0.13074 c -0.17095,-0.0351 -0.33877,-0.0638 -0.50384,-0.0868 -0.16508,-0.0231 -0.32734,-0.0402 -0.4868,-0.0517 -0.15945,-0.0115 -0.31615,-0.0177 -0.47025,-0.0181 -0.1541,-4.3e-4 -0.30577,0.005 -0.45475,0.015 -0.14901,0.0101 -0.29561,0.0253 -0.43977,0.0455 -0.14417,0.0202 -0.28571,0.0452 -0.4253,0.0749 -0.13959,0.0297 -0.2771,0.064 -0.41238,0.10284 -0.13527,0.0388 -0.26824,0.0824 -0.39946,0.12971 -0.13119,0.0473 -0.26066,0.0986 -0.38809,0.15399 -0.1274,0.0554 -0.25283,0.11482 -0.37672,0.17777 -0.24777,0.1259 -0.48879,0.26655 -0.72398,0.41961 -0.23519,0.15307 -0.46468,0.31833 -0.68937,0.49455 -0.22469,0.17619 -0.44467,0.36328 -0.66094,0.55862 -0.21627,0.19533 -0.42705,0.39922 -0.63303,0.60926 -0.20599,0.21004 -0.40709,0.42633 -0.6041,0.64647 -0.19701,0.22015 -0.38994,0.44409 -0.57929,0.66973 -0.18936,0.22565 -0.3751,0.453 -0.55811,0.67955 -0.36602,0.45309 -0.72062,0.90314 -1.06919,1.33221 -0.17428,0.21454 -0.34693,0.42365 -0.51883,0.62529 -0.17189,0.20163 -0.34336,0.39568 -0.51418,0.57981 -0.0926,0.0998 -0.18655,0.19356 -0.28215,0.28164 -0.0956,0.0881 -0.19263,0.17036 -0.29094,0.24753 -0.0983,0.0772 -0.19801,0.14898 -0.29869,0.216 -0.10068,0.067 -0.20217,0.12941 -0.30489,0.18707 -0.20544,0.11533 -0.41471,0.21252 -0.62632,0.29507 -0.2116,0.0826 -0.42568,0.15071 -0.64079,0.20671 -0.21511,0.056 -0.43103,0.10024 -0.64698,0.13591 -0.21595,0.0357 -0.43183,0.0627 -0.64596,0.0842 -0.42825,0.0431 -0.85024,0.0644 -1.25522,0.0884 -0.40498,0.024 -0.79415,0.0488 -1.16944,0.0956 -0.18764,0.0234 -0.37191,0.0519 -0.55294,0.0889 -0.18102,0.037 -0.35888,0.0821 -0.53381,0.13798 -0.17493,0.0558 -0.34688,0.12258 -0.51625,0.20257 -0.16937,0.08 -0.33588,0.17327 -0.50023,0.28267 -0.16434,0.10941 -0.32642,0.23469 -0.48627,0.37879 -0.15985,0.1441 -0.31747,0.30686 -0.47336,0.49093 -0.18376,0.21695 -0.36861,0.42124 -0.55294,0.61339 -0.18433,0.19216 -0.36805,0.37226 -0.55139,0.54106 -0.18333,0.1688 -0.36597,0.32645 -0.54673,0.47335 -0.18077,0.14691 -0.35978,0.28332 -0.5364,0.4098 -0.17663,0.12647 -0.35101,0.24286 -0.52194,0.35036 -0.17092,0.1075 -0.33864,0.20612 -0.50229,0.29611 -0.16365,0.09 -0.3232,0.17152 -0.47801,0.24546 -0.1548,0.0739 -0.30467,0.14012 -0.44907,0.19947 -0.28879,0.11871 -0.55875,0.20986 -0.8015,0.28009 -0.24275,0.0702 -0.45842,0.11971 -0.63768,0.15399 -0.17927,0.0343 -0.3223,0.0537 -0.42065,0.0646 -0.0984,0.0109 -0.15193,0.0129 -0.15193,0.0129 l -0.14469,0.008 c -0.77674,2.81052 -4.66732,3.41704 -7.064683,3.10627 -2.57679,-0.33403 -5.058129,-2.05174 -6.728271,-1.86087 -1.670141,0.19088 -0.763619,3.76955 -2.76779,5.10563 -2.004172,1.33612 -2.19488,3.91318 -4.246769,5.53558 -2.05189,1.62243 -0.906789,5.05793 -0.381889,6.91896 0.524904,1.86102 3.006238,7.58766 6.728272,9.54412 3.722032,1.95646 20.56662,11.97728 30.25344,13.3134 0.12327,0.017 0.24548,0.0324 0.36742,0.0475 l 0.10801,-3.68143 5.75985,-10.83396 0.48266,-2.65203 5.2772,-0.96894 6.38669,-0.19327 7.46879,-11.4024 1.17357,-2.83807 -0.66404,-2.4567 0.86713,-3.07423 3.38998,-1.96784 c -0.1617,-0.82002 0.0583,-1.98615 0.41031,-2.81585 0.29475,-0.69477 0.74734,-1.2974 1.04593,-1.65261 z" /><path
         id="path1069"
         style="fill:#333333;stroke:none;stroke-width:0.26458333;stroke-dasharray:none"
         d="m 112.87788,86.522033 c -1.11045,-0.0059 -2.63971,0.55828 -4.5377,1.148767 -3.03679,0.944789 -5.19637,0.135196 -7.76077,0.0677 -2.564392,-0.06749 -3.711318,8.09815 -5.330935,11.202417 -1.619618,3.104263 3.779117,11.877123 5.263755,14.778933 1.48466,2.90182 -0.0677,5.87121 2.22674,10.39265 1.57719,3.10799 1.84732,5.16329 1.8619,6.14484 0.0371,-0.002 0.12242,-0.002 0.3483,-0.047 0.13339,-0.0266 0.29755,-0.0658 0.48938,-0.12351 0.19182,-0.0577 0.41154,-0.134 0.65629,-0.23461 0.12237,-0.0503 0.24998,-0.10641 0.3824,-0.1695 0.13243,-0.0631 0.26966,-0.13289 0.41083,-0.21032 0.14117,-0.0774 0.2865,-0.16246 0.43512,-0.2558 0.14861,-0.0933 0.30051,-0.19511 0.45526,-0.30592 0.15476,-0.11082 0.31221,-0.23085 0.47181,-0.3607 0.1596,-0.12986 0.32107,-0.26967 0.48421,-0.42013 0.16314,-0.15047 0.32762,-0.31158 0.49299,-0.48421 0.16538,-0.17263 0.33185,-0.35658 0.49816,-0.55294 0.0971,-0.11464 0.19552,-0.22324 0.29559,-0.32556 0.10008,-0.10232 0.20166,-0.19865 0.30438,-0.28939 0.10271,-0.0907 0.2066,-0.1759 0.3116,-0.2558 0.10501,-0.0799 0.21138,-0.15448 0.31833,-0.22427 0.10695,-0.0698 0.21443,-0.13491 0.32298,-0.19534 0.10855,-0.0604 0.21782,-0.11614 0.32763,-0.16795 0.21961,-0.10361 0.44149,-0.19054 0.66404,-0.26407 0.22255,-0.0735 0.44597,-0.13358 0.66869,-0.18293 0.22273,-0.0494 0.44495,-0.0883 0.66508,-0.11937 0.22012,-0.0311 0.43791,-0.0542 0.65267,-0.0729 0.21476,-0.0187 0.42641,-0.0327 0.63304,-0.045 0.41326,-0.0245 0.8066,-0.0443 1.18132,-0.0785 0.18736,-0.0172 0.36993,-0.0381 0.54829,-0.0651 0.17836,-0.027 0.35215,-0.06 0.52193,-0.1018 0.16978,-0.0418 0.33551,-0.0924 0.49713,-0.15399 0.16161,-0.0616 0.31948,-0.13438 0.47335,-0.22066 0.15388,-0.0863 0.30355,-0.18586 0.45011,-0.30179 0.14655,-0.11594 0.28978,-0.2479 0.42943,-0.39843 0.15394,-0.16594 0.31079,-0.34537 0.47129,-0.53537 0.16049,-0.18999 0.32482,-0.39103 0.49299,-0.59996 0.33634,-0.41786 0.68914,-0.86832 1.06298,-1.33118 0.18692,-0.23143 0.37872,-0.46574 0.57671,-0.70074 0.198,-0.23499 0.40216,-0.47038 0.61237,-0.70383 0.2102,-0.23344 0.42654,-0.46518 0.65009,-0.69195 0.22354,-0.22677 0.45393,-0.44855 0.69194,-0.66352 0.17852,-0.16123 0.36238,-0.31873 0.55139,-0.47077 0.18901,-0.15204 0.38325,-0.29882 0.58291,-0.43925 0.19967,-0.14044 0.405,-0.27461 0.61547,-0.40101 0.21047,-0.12641 0.42607,-0.24506 0.6475,-0.35502 0.22144,-0.10996 0.44855,-0.21121 0.6811,-0.30231 0.23255,-0.0911 0.47087,-0.17202 0.71468,-0.24184 0.24382,-0.0698 0.49304,-0.12854 0.74828,-0.17467 0.25524,-0.0461 0.51608,-0.0797 0.7829,-0.0997 0.17787,-0.0133 0.35834,-0.0204 0.54157,-0.0212 0.18322,-8.1e-4 0.36907,0.005 0.55758,0.017 0.18852,0.0124 0.37987,0.0316 0.57361,0.0579 0.0246,0.003 0.0502,0.009 0.0749,0.0129 -0.27828,-0.58103 -0.53632,-1.20579 -0.82113,-1.86087 -1.34968,-3.10427 0.405,-4.72357 1.34978,-6.47816 0.94478,-1.75458 0.60162,-1.6871 -0.94516,-2.63188 -1.54678,-0.94478 -0.8771,-2.14018 -4.04885,-4.04936 -3.17175,-1.909179 -8.77276,-9.043005 -9.65005,-9.582875 -0.87729,-0.539869 -1.1476,-2.698869 -2.09238,-4.116027 -0.35429,-0.531438 -0.86955,-0.740581 -1.53583,-0.744141 z" /><path
         id="path458"
         style="fill:#333333;stroke:none;stroke-width:0.26458333;stroke-dasharray:none"
         d="m 172.54091,112.50029 -1.5906,-3.62459 -0.10181,-3.08973 -1.58801,-3.24425 -1.19114,-4.792982 -10.61538,-1.406116 2.45102,-5.587772 h 1.17409 l 0.0393,-1.264006 -3.51762,-4.159953 -1.24746,-1.125512 c -2.34188,1.835176 -4.43055,3.871067 -6.24045,5.422408 -4.72389,4.049046 -5.29724,12.349803 -6.57944,17.445963 -1.2822,5.09614 -5.5673,5.22904 -6.78202,5.36401 -1.21471,0.13497 -3.84682,0.0673 -1.55236,2.56419 2.29446,2.4969 6.51227,-0.40515 6.51227,-0.40515 7.01834,-3.67788 12.01204,-3.84651 14.67765,-5.39863 2.66563,-1.55214 4.14833,-1.48427 6.44509,-1.11311 2.29675,0.37115 4.18396,3.40792 7.22074,4.3527 1.35418,0.4213 2.05665,0.37866 2.48616,0.0625 z" /><path
         id="path1908"
         style="fill:#333333;stroke:none;stroke-width:0.26458333;stroke-dasharray:none"
         d="m 231.27427,106.77557 -12.96096,15.53756 -9.787,-7.18148 -9.48263,-2.81068 -6.85901,8.59173 -0.10852,2.74401 c 0.52529,0.13765 1.05596,0.27326 1.59525,0.40463 7.44406,1.8133 10.42878,4.97746 13.87047,8.41912 3.44169,3.4417 4.11692,7.40933 9.98802,8.90799 5.87112,1.49867 12.57429,7.08095 17.37,9.53843 4.79571,2.4575 5.39258,4.91508 6.75256,6.41822 1.35998,1.50306 4.24681,1.40773 8.30285,1.52703 4.05608,0.11929 7.0525,-1.49014 9.41441,-2.56986 2.36195,-1.07974 3.1043,-2.22723 2.96933,-3.03703 -0.13495,-0.80981 0.54009,-2.42904 0.0677,-4.3186 -0.47239,-1.88956 0.40507,-1.28216 0.87746,-3.44165 0.47239,-2.1595 -3.98176,-6.20865 -6.14122,-8.09821 -2.15949,-1.88956 -3.57673,-4.25138 -3.64423,-5.06119 -0.0675,-0.80981 -1.01239,-0.94488 -3.98166,-3.98167 -2.9693,-3.03679 -0.47254,-3.91432 -8.09822,-10.93267 -3.47002,-3.19365 -7.00538,-7.08205 -10.1446,-10.65568 z m 13.56145,53.19004 c -0.33832,0.003 -0.66157,0.0788 -0.96428,0.26665 -1.38383,0.85893 1.24023,6.25078 1.24023,6.25078 0,0 1.67008,-2.0996 2.81533,-2.24276 1.14524,-0.14315 2.95899,-0.19068 2.95899,-0.19068 0,0 -0.23879,-0.90687 -0.0956,-1.4795 0.14315,-0.57262 -0.28615,-1.43142 -2.00401,-1.57458 -1.34208,-0.11184 -2.74237,-1.03912 -3.95066,-1.02991 z m 4.55993,5.75727 c -0.26709,-9.5e-4 -0.56451,0.0176 -0.89556,0.0444 -1.76559,0.14316 -2.57686,2.7203 -3.34036,4.24729 -0.76349,1.52699 -0.76378,6.06009 -0.76378,6.06009 0.0477,2.29049 -1.67015,3.43567 0.14314,7.01456 1.81331,3.57889 4.19923,2.09961 4.19923,2.09961 l 2.31769,-1.81332 c 2.31777,-1.8133 1.30882,-5.05799 1.07022,-6.34638 -0.23859,-1.2884 -0.38138,-4.39035 -0.23823,-5.39244 0.14316,-1.00209 -0.14346,-1.90876 -0.47749,-3.91294 -0.2714,-1.62838 -0.85748,-1.99682 -2.01486,-2.00091 z" /><path
         id="path1913"
         style="fill:#333333;stroke:none;stroke-width:0.26458333;stroke-dasharray:none"
         d="m 167.31022,79.563285 c -3.63823,0.005 -6.94606,1.692749 -9.88363,3.82974 l 1.12499,1.015959 3.90416,4.615222 -0.0935,3.052527 h -1.5937 l -1.3963,3.185852 9.7653,1.292944 1.37304,5.530931 1.65055,3.37137 0.10335,3.11918 1.07745,2.45722 c 0.0747,-0.20064 0.15605,-0.40804 0.2558,-0.62115 0.74232,-1.58587 2.73305,-1.45119 4.58887,-1.41749 1.85581,0.0337 1.38302,-0.13456 2.83393,-2.83393 1.45091,-2.69936 0.80995,-3.28704 1.11363,-4.58887 0.30368,-1.30183 3.17198,-1.754984 6.47867,-1.856214 3.30673,-0.10122 4.319,1.687044 4.69016,2.530594 0.37116,0.84355 0.10093,2.22701 -0.50643,2.39572 -0.60736,0.16871 -1.72054,-0.0671 -2.69906,-0.30334 -0.97852,-0.2362 -0.64098,0.77579 -2.42931,0.40462 -1.78833,-0.37116 -2.0247,0.30385 -2.93574,0.87747 -0.91103,0.57361 -2.02482,-0.2024 -2.5647,0.67489 -0.53987,0.87729 -0.91064,3.50928 -2.26033,4.21783 -1.34968,0.70854 -3.79674,-0.1003 -5.03742,0.75861 -1.24065,0.85893 0.3819,6.01263 2.76779,7.25331 2.06753,1.07511 7.00391,3.08118 13.12788,4.77748 l 0.11421,-2.87527 7.68739,-9.62887 10.55491,3.12901 8.97257,6.58357 12.29693,-14.74328 c -3.37475,-3.86566 -6.2084,-7.227338 -7.86826,-8.717814 -3.30669,-2.969291 -10.66245,-4.049034 -16.2636,-6.410978 -5.60119,-2.361934 -14.77923,-5.803854 -18.15341,-6.816121 -3.37421,-1.012237 -3.30636,-0.944551 -5.80327,-1.079521 -2.49691,-0.13497 -4.6567,-1.417191 -12.75477,-2.969328 -0.7592,-0.145512 -1.50535,-0.21288 -2.23811,-0.211873 z m 21.2757,20.826635 c -1.84807,0.0141 -4.20763,0.64135 -5.03432,0.9126 -1.07974,0.35429 -0.74259,1.8557 -0.74259,1.8557 0.13497,1.1641 0.28665,1.63692 0.89401,1.56942 0.60736,-0.0675 0.69215,-0.0168 1.33325,-0.52297 0.6411,-0.50613 1.26497,-0.47238 2.31097,-0.2868 1.04601,0.18558 1.31609,0.10123 2.02468,-0.28681 0.70858,-0.38803 2.49676,0.16847 2.95228,0.45527 0.45552,0.28681 0.50643,-1.07948 0.21962,-1.88929 -0.2868,-0.80981 -0.70883,-1.02957 -2.46342,-1.62005 -0.41123,-0.1384 -0.92874,-0.1914 -1.49448,-0.18707 z" /></g></g></svg>
