<?xml version="1.0" encoding="UTF-8" standalone="no"?>
<!-- Created with Inkscape (http://www.inkscape.org/) -->

<svg
   width="1122.5197"
   height="793.70081"
   viewBox="0 0 296.99998 210"
   version="1.1"
   id="svg5"
   xml:space="preserve"
   inkscape:version="1.2.1 (9c6d41e410, 2022-07-14)"
   sodipodi:docname="kab pulau.svg"
   xmlns:inkscape="http://www.inkscape.org/namespaces/inkscape"
   xmlns:sodipodi="http://sodipodi.sourceforge.net/DTD/sodipodi-0.dtd"
   xmlns="http://www.w3.org/2000/svg"
   xmlns:svg="http://www.w3.org/2000/svg"><sodipodi:namedview
     id="namedview7"
     pagecolor="#ffffff"
     bordercolor="#000000"
     borderopacity="0.25"
     inkscape:showpageshadow="2"
     inkscape:pageopacity="0.0"
     inkscape:pagecheckerboard="0"
     inkscape:deskcolor="#d1d1d1"
     inkscape:document-units="px"
     showgrid="false"
     inkscape:zoom="1.4575098"
     inkscape:cx="519.03596"
     inkscape:cy="373.92544"
     inkscape:window-width="1920"
     inkscape:window-height="991"
     inkscape:window-x="-9"
     inkscape:window-y="-9"
     inkscape:window-maximized="1"
     inkscape:current-layer="g959" /><defs
     id="defs2" /><g
     inkscape:label="Layer 1"
     inkscape:groupmode="layer"
     id="g959"
     style="display:inline"><path
       id="path935"
       style="fill:#9ca3af;stroke:none;stroke-width:0.26458333;stroke-dasharray:none"
       d="M 50.237242 16.744197 L 35.525996 17.95911 C 31.40947 18.229048 38.562557 26.056855 39.237397 33.142679 C 39.912236 40.228503 35.863334 45.357744 34.513655 47.922138 C 33.163973 50.486529 33.096587 51.836002 37.01066 56.8973 C 40.924734 61.958607 40.789457 62.431299 43.488817 71.136741 C 46.188178 79.842183 42.071703 87.130102 41.531831 91.246624 C 40.991958 95.363156 48.61776 113.044 51.924478 117.56543 C 55.231194 122.08688 62.924299 124.38154 65.218756 128.16065 C 67.513214 131.93974 74.80165 136.79847 76.286297 138.14815 C 77.770947 139.49784 81.415184 137.27075 84.047064 136.79836 C 86.67894 136.32597 85.05921 132.88451 89.108253 130.45508 C 93.157293 128.02565 97.476407 133.22215 99.838347 132.00744 C 102.20029 130.79272 97.678615 120.93957 96.801323 116.89054 C 95.92403 112.8415 91.745559 106.16614 90.695753 103.92337 C 89.645949 101.6806 89.932081 101.39467 90.743296 97.243157 C 91.554506 93.091655 92.747859 92.470953 92.318393 91.182545 C 91.888928 89.894147 92.795462 89.417021 93.74983 88.367213 C 94.704197 87.317415 94.799556 85.885802 94.751836 82.640948 C 94.704118 79.396094 97.611348 76.130577 99.5009 72.621405 C 101.39046 69.112241 101.12035 67.627166 101.25532 63.443154 C 101.39027 59.259142 98.421294 57.504893 94.777158 54.670563 C 91.133019 51.836236 87.48867 46.842362 83.034722 44.95281 C 78.580779 43.063258 73.991979 39.958845 71.562555 35.369933 C 69.133128 30.78102 63.734378 29.431217 59.550368 23.492622 C 55.366361 17.554027 50.237242 16.744197 50.237242 16.744197 z M 167.31123 79.562583 C 160.22784 79.572322 154.39485 85.95764 150.11383 89.627085 C 145.38994 93.676127 144.81659 101.97689 143.53439 107.07305 C 142.25219 112.16918 137.96709 112.30209 136.75237 112.43706 C 135.53766 112.57203 132.90555 112.50433 135.20001 115.00125 C 137.49447 117.49814 141.71228 114.5961 141.71228 114.5961 C 148.73061 110.91823 153.72433 110.74958 156.38993 109.19747 C 159.05556 107.64533 160.53826 107.7132 162.83502 108.08436 C 165.13176 108.4555 167.01899 111.49228 170.05576 112.43706 C 173.09254 113.38184 172.85637 111.99826 173.5987 110.41238 C 174.34102 108.82651 176.33175 108.96119 178.18757 108.99489 C 180.04338 109.02863 179.57059 108.86033 181.0215 106.16096 C 182.47241 103.4616 181.83145 102.87392 182.13513 101.57209 C 182.43881 100.27026 185.3071 99.817104 188.6138 99.715874 C 191.92053 99.614654 192.9328 101.40292 193.30396 102.24647 C 193.67512 103.09002 193.40489 104.47348 192.79753 104.64219 C 192.19017 104.8109 191.07699 104.57504 190.09847 104.33885 C 189.11995 104.10265 189.45749 105.11464 187.66916 104.74347 C 185.88083 104.37231 185.64446 105.04732 184.73342 105.62094 C 183.82239 106.19455 182.7086 105.41854 182.16872 106.29583 C 181.62885 107.17312 181.25808 109.8051 179.90839 110.51366 C 178.55871 111.2222 176.11165 110.41335 174.87097 111.27227 C 173.63031 112.1312 175.25286 117.2849 177.63876 118.52558 C 180.02469 119.76626 186.22835 122.24733 193.67241 124.06064 C 201.11648 125.87394 204.10119 129.03809 207.54288 132.47976 C 210.98457 135.92146 211.65979 139.88909 217.5309 141.38775 C 223.40202 142.88642 230.10519 148.46869 234.9009 150.92618 C 239.69661 153.38368 240.29348 155.84126 241.65346 157.3444 C 243.01344 158.84747 245.90026 158.75213 249.95631 158.87143 C 254.01239 158.99072 257.0088 157.3813 259.37072 156.30157 C 261.73267 155.22183 262.47502 154.07434 262.34005 153.26454 C 262.2051 152.45473 262.88014 150.8355 262.40775 148.94594 C 261.93536 147.05638 262.81282 147.66378 263.28521 145.50429 C 263.7576 143.34479 259.30346 139.29564 257.14399 137.40608 C 254.9845 135.51652 253.56726 133.1547 253.49976 132.34489 C 253.43228 131.53508 252.48738 131.40001 249.5181 128.36322 C 246.5488 125.32643 249.04557 124.4489 241.41988 117.43055 C 233.79419 110.41221 225.83112 100.0197 222.52439 97.050404 C 219.21769 94.08111 211.86195 93.001372 206.26079 90.639426 C 200.6596 88.27749 191.48157 84.835573 188.10738 83.823305 C 184.73317 82.811067 184.80102 82.878754 182.30411 82.743784 C 179.8072 82.608814 177.64742 81.326594 169.54934 79.774456 C 168.79014 79.628944 168.04399 79.561576 167.31123 79.562583 z M 112.87889 86.521331 C 111.76845 86.515398 110.23918 87.079612 108.34119 87.670098 C 105.3044 88.614886 103.14482 87.805294 100.58042 87.737794 C 98.016026 87.670304 96.869096 95.835947 95.24948 98.940211 C 93.629864 102.04448 99.0286 110.81735 100.51324 113.71915 C 101.9979 116.62097 100.44552 119.59036 102.73998 124.1118 C 105.03444 128.63324 104.56209 130.9274 104.56209 130.9274 C 104.25613 134.31071 99.953278 135.03588 97.376482 134.70185 C 94.799689 134.36782 92.318355 132.65011 90.648211 132.84098 C 88.978068 133.03186 89.884594 136.61052 87.880421 137.94661 C 85.876247 139.28273 85.685543 141.85978 83.633652 143.48219 C 81.58176 145.10462 82.726862 148.54012 83.251763 150.40115 C 83.776667 152.26217 86.257998 157.98881 89.980035 159.94527 C 93.702071 161.90173 110.54665 171.92255 120.23348 173.25867 C 129.92033 174.59479 135.45558 170.0616 144.76067 168.05744 C 154.06576 166.05327 167.33163 169.63215 175.10972 167.91429 C 182.88782 166.19644 190.66585 166.48233 195.15139 168.58195 C 199.63693 170.68156 199.11218 169.77487 203.93173 171.25414 C 208.7513 172.73342 212.99837 179.70051 215.09798 181.41838 C 217.19758 183.13624 220.82397 188.43326 222.01693 190.8669 C 223.20989 193.30049 226.8366 192.82299 229.12709 193.20474 C 231.41757 193.58649 230.89278 191.86885 234.13764 188.09911 C 237.3825 184.32935 236.75298 184.66313 236.75298 180.46391 C 236.75298 176.2647 238.19386 173.83125 238.57561 169.48887 C 238.95736 165.1465 236.75298 164.5736 236.75298 162.28311 C 236.75298 159.99263 232.32452 156.41385 225.69164 152.31008 C 219.05879 148.20628 210.70776 146.58365 208.13096 142.0027 C 205.55416 137.42172 204.59962 136.51518 199.49376 132.31595 C 194.3879 128.11672 184.89186 125.3012 179.0702 123.39246 C 173.24856 121.48374 174.2029 120.62489 172.9145 118.04809 C 171.62612 115.47125 166.66372 115.3759 166.66372 115.3759 C 166.66372 115.3759 165.61358 119.57509 162.27329 122.10417 C 158.93301 124.63325 160.22186 126.58995 156.54755 127.78289 C 152.87323 128.97586 151.49766 131.65305 151.97005 133.00273 C 152.44244 134.35241 153.4546 133.61021 155.02361 133.2053 C 156.59262 132.8004 156.947 133.57627 157.23381 134.04866 C 157.52062 134.52105 157.94229 136.24181 157.94229 136.24181 L 157.25035 136.41079 C 157.25035 136.41079 156.74429 134.80789 156.49122 134.38611 C 156.23816 133.96434 155.78257 134.20037 154.33166 134.7065 C 152.88075 135.21264 151.76764 134.60516 151.16028 133.93032 C 150.55293 133.25547 150.78866 131.53498 151.26105 130.42149 C 151.73344 129.308 152.61084 128.4304 152.61084 128.4304 C 152.61084 128.4304 150.11415 127.92443 148.89943 127.8232 C 147.68474 127.72197 144.64801 128.46451 144.64801 128.46451 L 144.51262 128.02577 C 144.51262 128.02577 147.8868 127.04722 149.43894 127.11472 C 150.99105 127.1822 153.21803 127.95808 153.21803 127.95808 C 153.21803 127.95808 156.28907 125.93379 158.14486 123.09946 C 160.00068 120.26512 162.32866 120.19751 163.91454 117.05952 C 165.50042 113.9215 162.8683 112.57166 160.87751 112.40295 C 158.88675 112.23424 156.52523 114.15744 154.93938 114.25866 C 153.3535 114.35989 150.51897 115.271 150.51897 115.271 C 150.51897 115.271 142.28609 120.1975 137.08982 119.92756 C 131.89354 119.65762 131.15105 117.22805 129.80138 114.12378 C 128.4517 111.01951 130.20638 109.40021 131.15116 107.64562 C 132.09594 105.89104 131.75278 105.95852 130.206 105.01374 C 128.65922 104.06896 129.3289 102.87355 126.15715 100.96438 C 122.98541 99.055194 117.38439 91.921369 116.5071 91.381499 C 115.62981 90.841631 115.3595 88.682628 114.41472 87.265472 C 114.06043 86.734034 113.54517 86.524891 112.87889 86.521331 z M 188.58693 100.38922 C 186.73886 100.40334 184.3793 101.03057 183.55261 101.30182 C 182.47287 101.65611 182.81002 103.15752 182.81002 103.15752 C 182.94499 104.32162 183.09667 104.79444 183.70403 104.72694 C 184.31139 104.65946 184.39618 104.7101 185.03728 104.20397 C 185.67838 103.69784 186.30225 103.73159 187.34825 103.91717 C 188.39426 104.10275 188.66434 104.0184 189.37293 103.63036 C 190.08151 103.24233 191.86969 103.79883 192.32521 104.08563 C 192.78073 104.37244 192.83164 103.00615 192.54483 102.19634 C 192.25803 101.38653 191.836 101.16677 190.08141 100.57629 C 189.67018 100.43789 189.15267 100.38489 188.58693 100.38922 z M 244.83673 159.96491 C 244.49841 159.96749 244.17515 160.04367 243.87245 160.23156 C 242.48862 161.09049 245.11268 166.48234 245.11268 166.48234 C 245.11268 166.48234 246.78276 164.38274 247.92801 164.23958 C 249.07325 164.09643 250.887 164.0489 250.887 164.0489 C 250.887 164.0489 250.64821 163.14203 250.7914 162.5694 C 250.93455 161.99678 250.50525 161.13798 248.78739 160.99482 C 247.44531 160.88298 246.04502 159.9557 244.83673 159.96491 z M 249.39666 165.72218 C 249.12957 165.72123 248.83215 165.73978 248.5011 165.76662 C 246.73551 165.90978 245.92424 168.48692 245.16074 170.01391 C 244.39725 171.5409 244.39696 176.074 244.39696 176.074 C 244.44471 178.36449 242.72682 179.50967 244.5401 183.08856 C 246.35341 186.66745 248.73933 185.18817 248.73933 185.18817 L 251.05702 183.37485 C 253.37479 181.56155 252.36584 178.31685 252.12724 177.02847 C 251.88865 175.74007 251.74586 172.63812 251.88901 171.63603 C 252.03217 170.63394 251.74555 169.72727 251.41152 167.72309 C 251.14012 166.09471 250.55403 165.72627 249.39666 165.72218 z " /></g></svg>
